<?xml version="1.0" ?><svg viewBox="0 0 356.8 431.51" xmlns="http://www.w3.org/2000/svg"><title/><g data-name="Layer 2" id="Layer_2"><g data-name="japan, tower, tokyo, landmark, travel, architecture, tourism, view" id="japan_tower_tokyo_landmark_travel_architecture_tourism_view"><path d="M158,147.22v74.9a5.47,5.47,0,1,0,10.93,0v-74.9a5.47,5.47,0,0,0-10.93,0Z"/><path d="M121.29,227.42a5.18,5.18,0,0,0,1.34.17,5.47,5.47,0,0,0,5.3-4.13c.47-1.86.93-3.75,1.39-5.63l13,8.81a5.46,5.46,0,0,0,6.14-9l-16.39-11.13q3.25-13.87,6.28-28.35l3.5,3a5.47,5.47,0,1,0,7.08-8.34l-8.09-6.86q2.42-12.18,4.66-24.66a5.47,5.47,0,0,0-10.76-1.93c-5.1,28.51-11,55.92-17.39,81.48A5.46,5.46,0,0,0,121.29,227.42Z"/><path d="M241.32,256.91a5.47,5.47,0,0,0-5.47,5.47v.68a5.47,5.47,0,0,0,10.93,0v-.68A5.46,5.46,0,0,0,241.32,256.91Z"/><path d="M241.32,237.22H85.67a5.47,5.47,0,0,0-5.47,5.47v49.59a5.47,5.47,0,0,0,5.47,5.47H241.32a5.46,5.46,0,0,0,5.46-5.47V281.74a5.47,5.47,0,0,0-10.93,0v5.07H91.13V248.15H241.32a5.47,5.47,0,0,0,0-10.93Z"/><path d="M123.92,96.9V120a5.47,5.47,0,0,0,5.47,5.47H197.6a5.47,5.47,0,0,0,5.47-5.47V96.9a5.47,5.47,0,0,0-10.94,0v17.64H134.85V102.36h42.24a5.47,5.47,0,0,0,0-10.93h-47.7A5.47,5.47,0,0,0,123.92,96.9Z"/><path d="M178.55,217.6a5.46,5.46,0,1,0,6.14,9l13-8.81c.46,1.88.92,3.77,1.39,5.63a5.46,5.46,0,0,0,5.29,4.13,5.18,5.18,0,0,0,1.34-.17,5.46,5.46,0,0,0,4-6.63c-6.44-25.56-12.3-53-17.4-81.48a5.47,5.47,0,0,0-10.76,1.93q2.24,12.48,4.66,24.66l-8.08,6.86a5.46,5.46,0,0,0,3.54,9.63,5.42,5.42,0,0,0,3.53-1.29l3.51-3q3,14.46,6.27,28.35Z"/><path d="M163.49,0A5.46,5.46,0,0,0,158,5.47V24.75h-2.81a5.46,5.46,0,0,0-5.45,5c0,.18-1.53,18.52-5.32,47.1a5.46,5.46,0,0,0,4.7,6.14,5.79,5.79,0,0,0,.72,0,5.45,5.45,0,0,0,5.41-4.74c2.67-20.12,4.23-35.24,4.93-42.63h6.57c.7,7.39,2.25,22.51,4.92,42.63a5.46,5.46,0,0,0,5.41,4.74,6,6,0,0,0,.73,0,5.47,5.47,0,0,0,4.7-6.14c-3.8-28.58-5.31-46.92-5.32-47.1a5.46,5.46,0,0,0-5.45-5H169V5.47A5.47,5.47,0,0,0,163.49,0Z"/><path d="M0,426a5.47,5.47,0,0,0,5.47,5.47H132.1a5.47,5.47,0,0,0,0-10.94H113.28L114.74,405a46.55,46.55,0,0,1,17.72-32.34,6.59,6.59,0,0,0,.57-.34,5.07,5.07,0,0,0,.85-.75,50.85,50.85,0,0,1,59.22,0,5.14,5.14,0,0,0,.86.75,6.42,6.42,0,0,0,.56.34A46.52,46.52,0,0,1,212.25,405l1.46,15.56H196.83a5.47,5.47,0,0,0,0,10.94H321.31a5.47,5.47,0,0,0,0-10.94h-20c-23.44-24.19-44.66-60.52-63.07-108.08a5.47,5.47,0,1,0-10.2,3.95q9.4,24.29,19.79,44.78l-20.07-5.31A5.47,5.47,0,1,0,225,366.48l29.82,7.89q15,27,31.68,46.2h-56.2l21.92-30.78a5.46,5.46,0,1,0-8.9-6.34L223.78,410.9l-.65-6.91a57.3,57.3,0,0,0-18.6-37.17l7.11-10.08h0l14.07-20a5.46,5.46,0,0,0-8.93-6.3L206.61,344.9l-21-22.63a5.47,5.47,0,1,0-8,7.43L200.17,354l-4.37,6.2A60.85,60.85,0,0,0,169,351.38V314.46a5.47,5.47,0,0,0-10.93,0v36.91a60.85,60.85,0,0,0-26.85,8.85L126.81,354l22.57-24.33a5.47,5.47,0,1,0-8-7.43l-21,22.63L110.2,330.47a5.46,5.46,0,0,0-8.93,6.3l14.06,20,0,0,7.1,10.06A57.33,57.33,0,0,0,103.86,404l-.65,6.91L83.66,383.45a5.46,5.46,0,0,0-8.9,6.34l21.92,30.78H40.48q16.68-19.2,31.67-46.2L102,366.48a5.47,5.47,0,1,0-2.8-10.57l-20.07,5.31q10.38-20.5,19.79-44.78a5.46,5.46,0,1,0-10.19-3.95c-18.42,47.56-39.63,83.89-63.07,108.08H5.47A5.47,5.47,0,0,0,0,426Z"/><path d="M163.49,420.57a5.47,5.47,0,0,0,0,10.94h2.59a5.47,5.47,0,0,0,0-10.94Z"/><path d="M348.75,420.57a5.47,5.47,0,0,0,0,10.94h2.58a5.47,5.47,0,0,0,0-10.94Z"/><path d="M118.45,262.1v13.12a5.47,5.47,0,0,0,10.94,0V262.1a5.47,5.47,0,0,0-10.94,0Z"/><path d="M158,262.1v13.12a5.47,5.47,0,0,0,10.93,0V262.1a5.47,5.47,0,0,0-10.93,0Z"/><path d="M197.6,262.1v13.12a5.47,5.47,0,0,0,10.93,0V262.1a5.47,5.47,0,0,0-10.93,0Z"/></g></g></svg>